<svg  viewBox="0 0 10 5" fill="none" xmlns="http://www.w3.org/2000/svg">
<path fill-rule="evenodd" clip-rule="evenodd" d="M4.22517 2.04399C4.51361 2.20254 4.86161 2.209 5.15573 2.06127L7.37427 0.946912C7.62103 0.822965 7.72059 0.522446 7.59665 0.275683C7.4727 0.0289206 7.17218 -0.0706413 6.92542 0.0533056L5.1767 0.931672C4.88258 1.07941 4.53458 1.07295 4.24614 0.914398L2.74095 0.0870096C2.49896 -0.0460106 2.19495 0.0423285 2.06193 0.284321C1.92891 0.526313 2.01725 0.830321 2.25924 0.963341L4.22517 2.04399Z" fill="#D9D9D9"/>
<path fill-rule="evenodd" clip-rule="evenodd" d="M0.0713291 1.24283C-0.070745 1.47962 0.00603768 1.78675 0.242828 1.92882L4.29959 4.36288C4.61627 4.55289 5.01189 4.55289 5.32858 4.36288L9.38533 1.92882C9.62212 1.78675 9.69891 1.47962 9.55683 1.24283C9.41476 1.00604 9.10763 0.929255 8.87084 1.07133L5.32858 3.19669C5.01189 3.3867 4.61627 3.3867 4.29959 3.19669L0.757323 1.07133C0.520533 0.929255 0.213403 1.00604 0.0713291 1.24283Z" fill="#D9D9D9"/>
</svg>
